<?xml version="1.0" standalone="no"?>
<!DOCTYPE svg PUBLIC "-//W3C//DTD SVG 20010904//EN"
 "http://www.w3.org/TR/2001/REC-SVG-20010904/DTD/svg10.dtd">
<svg version="1.0" xmlns="http://www.w3.org/2000/svg"
 width="616.000000pt" height="156.000000pt" viewBox="0 0 616.000000 156.000000"
 preserveAspectRatio="xMidYMid meet">

<g transform="translate(0.000000,156.000000) scale(0.100000,-0.100000)"
fill="#000000" stroke="none">
<path d="M809 1330 c-113 -18 -225 -74 -301 -152 l-47 -49 -96 16 c-52 8 -99
15 -104 15 -6 0 -9 -138 -8 -360 l2 -360 84 -35 c74 -31 86 -34 94 -20 7 13
18 7 66 -37 32 -30 89 -70 128 -91 64 -33 73 -42 86 -80 l14 -42 169 -3 170
-2 15 47 c14 44 21 51 79 83 35 19 90 59 122 89 55 51 60 53 77 37 17 -15 23
-14 100 20 l81 37 0 358 c0 198 -3 359 -6 359 -4 0 -52 -7 -107 -16 l-100 -16
-51 50 c-28 28 -73 64 -101 81 -94 59 -247 89 -366 71z m194 -25 c267 -56 438
-329 372 -590 -49 -192 -194 -337 -381 -381 -199 -46 -419 53 -528 240 -48 82
-68 163 -75 301 -6 118 -8 127 -20 100 -7 -16 -19 -75 -26 -130 -12 -95 -13
-97 -15 -40 -1 52 -3 57 -12 35 -6 -14 -13 -94 -16 -178 -9 -267 -22 -176 -22
152 0 270 2 316 15 316 44 0 122 -24 138 -43 15 -17 20 -18 27 -6 66 113 195
201 335 229 63 12 134 11 208 -5z m517 -496 c0 -285 -2 -320 -15 -309 -12 10
-15 40 -16 144 0 126 -15 270 -18 186 -3 -66 -21 -70 -21 -5 0 76 -23 171 -55
234 l-25 50 53 9 c28 5 62 10 75 11 l22 1 0 -321z m-160 -287 c0 -21 -102
-130 -157 -168 -91 -63 -161 -86 -276 -92 -167 -8 -289 34 -400 138 -56 52
-108 120 -92 120 3 0 39 -33 78 -73 181 -186 449 -217 666 -78 50 32 151 134
151 152 0 5 7 9 15 9 8 0 15 -4 15 -8z"/>
<path d="M822 1259 c-181 -22 -343 -174 -381 -357 -33 -157 8 -297 122 -418
84 -90 100 -97 65 -27 -40 79 -36 89 20 47 83 -64 125 -78 237 -79 94 0 105 2
167 33 161 79 250 265 205 430 -21 78 -1 67 67 -38 39 -60 44 -53 26 41 -46
243 -269 399 -528 368z m193 -140 c32 -12 77 -41 108 -69 181 -166 135 -463
-88 -567 -51 -24 -73 -28 -145 -28 -71 0 -94 4 -141 26 -79 37 -133 90 -171
167 -29 59 -33 76 -33 147 1 64 6 91 26 135 44 95 124 168 213 196 65 20 167
17 231 -7z"/>
<path d="M831 1119 c-103 -20 -195 -91 -241 -184 -21 -42 -25 -65 -25 -140 0
-75 4 -98 24 -139 31 -63 86 -118 153 -153 47 -25 63 -28 148 -28 84 0 101 3
145 27 182 97 237 314 123 484 -69 101 -207 158 -327 133z m162 -45 c159 -54
239 -253 164 -406 -30 -61 -74 -105 -140 -140 -34 -19 -58 -23 -127 -23 -73 0
-92 4 -136 27 -133 70 -192 211 -148 358 20 68 107 159 174 183 59 20 155 21
213 1z"/>
<path d="M804 1037 c-114 -43 -182 -149 -171 -268 23 -255 369 -314 490 -84
29 56 29 164 0 220 -61 115 -205 175 -319 132z m178 -122 c41 -31 62 -74 62
-127 0 -157 -230 -206 -298 -65 -9 19 -16 50 -16 68 0 44 42 112 82 133 44 22
134 17 170 -9z"/>
<path d="M822 894 c-65 -33 -84 -127 -36 -183 75 -89 211 -48 222 68 4 45 1
52 -30 86 -41 45 -102 56 -156 29z m107 -51 c31 -27 37 -73 12 -103 -20 -25
-20 -25 -14 -2 4 16 1 22 -11 22 -20 0 -56 35 -56 54 0 16 26 46 40 46 4 0 17
-8 29 -17z"/>
<path d="M178 1002 l-28 -17 0 -202 0 -202 30 -16 c16 -8 31 -15 35 -15 3 0 5
106 5 235 0 129 -3 235 -7 235 -5 0 -20 -8 -35 -18z"/>
<path d="M1570 785 c0 -129 2 -235 5 -235 4 0 19 7 35 15 l30 16 0 204 0 204
-30 16 c-16 8 -31 15 -35 15 -3 0 -5 -106 -5 -235z"/>
</g>
</svg>
