<?xml version="1.0" standalone="no"?>
<!DOCTYPE svg PUBLIC "-//W3C//DTD SVG 20010904//EN"
 "http://www.w3.org/TR/2001/REC-SVG-20010904/DTD/svg10.dtd">
<svg version="1.0" xmlns="http://www.w3.org/2000/svg"
 width="616.000000pt" height="156.000000pt" viewBox="0 0 616.000000 156.000000"
 preserveAspectRatio="xMidYMid meet">

<g transform="translate(0.000000,156.000000) scale(0.100000,-0.100000)"
fill="#000000" stroke="none">
<path d="M845 1529 c-139 -20 -266 -83 -373 -184 l-75 -71 -124 20 c-68 10
-127 16 -131 12 -4 -4 -7 -211 -7 -459 l0 -452 90 -37 c67 -29 99 -37 126 -33
31 4 42 -1 89 -41 58 -49 136 -104 212 -147 39 -23 50 -36 65 -76 l17 -48 89
-7 c50 -3 147 -6 217 -6 l127 0 22 59 c20 55 27 63 84 97 59 36 130 88 209
155 34 29 38 30 59 16 20 -15 27 -14 84 7 34 13 80 33 103 45 l42 21 0 455 c0
427 -1 455 -17 455 -10 0 -70 -9 -133 -19 l-115 -18 -65 60 c-130 120 -247
175 -421 197 -92 11 -90 11 -174 -1z m255 -35 c208 -48 376 -206 451 -421 93
-268 -52 -613 -318 -751 -103 -53 -176 -72 -283 -72 -175 0 -310 58 -440 189
-139 139 -181 247 -201 505 -5 77 -12 142 -14 145 -8 7 -22 -43 -35 -119 -6
-41 -16 -93 -20 -115 l-8 -40 -1 55 c-1 45 -4 52 -13 36 -6 -10 -15 -108 -22
-218 -6 -110 -14 -196 -18 -192 -9 9 -11 735 -2 758 4 9 18 16 33 16 41 0 125
-27 154 -50 l25 -20 22 34 c35 57 163 169 233 205 37 19 95 42 129 52 80 22
239 24 328 3z m648 -618 c-1 -217 -6 -398 -10 -402 -18 -17 -23 18 -31 214 -4
114 -12 211 -17 216 -7 7 -10 -5 -10 -32 0 -74 -17 -45 -23 41 -8 96 -37 208
-73 279 -14 27 -24 52 -22 53 7 7 104 23 146 24 l44 1 -4 -394z m-208 -383 c0
-9 -46 -62 -102 -118 -166 -165 -290 -212 -527 -202 -175 8 -278 45 -401 147
-58 49 -150 155 -150 174 0 4 38 -28 84 -71 175 -166 304 -223 503 -223 119 0
191 17 298 70 85 41 207 143 245 205 23 37 50 47 50 18z"/>
<path d="M762 1415 c-129 -44 -226 -118 -301 -230 -75 -113 -96 -185 -96 -330
1 -133 16 -191 77 -293 40 -65 178 -212 185 -195 2 6 -8 35 -22 63 -41 82 -31
88 54 30 98 -66 148 -80 291 -80 111 0 118 1 188 35 206 98 321 317 278 526
-19 87 -19 89 -6 89 5 0 35 -36 66 -80 30 -44 58 -80 61 -80 3 0 2 28 -1 61
-27 237 -203 433 -441 494 -95 24 -245 20 -333 -10z m324 -150 c56 -17 146
-78 190 -129 19 -22 50 -70 67 -106 30 -62 32 -71 32 -181 0 -113 -1 -116 -38
-191 -86 -176 -258 -265 -462 -239 -96 12 -179 56 -249 132 -95 103 -132 215
-116 355 19 174 176 344 347 374 57 10 171 3 229 -15z"/>
<path d="M855 1256 c-119 -29 -235 -119 -291 -227 -27 -51 -29 -61 -29 -179 0
-116 2 -129 27 -181 34 -67 123 -156 199 -195 51 -28 60 -29 184 -29 126 0
132 1 185 30 131 72 218 201 227 342 15 217 -121 397 -335 442 -65 14 -102 13
-167 -3z m257 -69 c73 -36 149 -119 179 -195 35 -87 33 -217 -3 -294 -36 -77
-107 -151 -181 -188 -55 -27 -69 -30 -161 -30 -91 0 -107 3 -163 29 -154 73
-239 233 -213 399 13 79 35 123 95 190 50 55 116 99 168 113 18 4 75 7 127 6
81 -2 104 -7 152 -30z"/>
<path d="M814 1146 c-73 -34 -128 -88 -164 -158 -26 -53 -30 -72 -30 -143 0
-71 4 -90 30 -143 120 -239 467 -234 590 8 30 59 37 161 16 235 -24 79 -114
172 -199 203 -81 31 -175 30 -243 -2z m198 -126 c84 -24 135 -105 126 -200 -9
-88 -80 -155 -177 -167 -116 -14 -221 77 -221 192 0 30 44 117 72 143 43 40
125 52 200 32z"/>
<path d="M861 973 c-50 -26 -74 -64 -79 -125 -4 -58 17 -102 70 -141 38 -29
114 -33 158 -9 70 38 108 139 76 201 -40 77 -151 113 -225 74z m134 -67 c35
-35 41 -71 19 -115 -16 -32 -18 -34 -22 -13 -2 12 -7 22 -12 22 -19 0 -70 53
-70 73 0 24 27 57 47 57 8 0 25 -11 38 -24z"/>
<path d="M33 1109 l-33 -21 0 -257 0 -257 35 -17 c20 -9 40 -17 45 -17 11 0
14 547 4 574 -8 20 -12 20 -51 -5z"/>
<path d="M1817 1123 c-11 -10 -8 -571 2 -578 5 -3 26 2 45 12 l36 17 0 261 0
261 -35 17 c-41 19 -39 19 -48 10z"/>
</g>
</svg>
